<svg width="29" height="43" viewBox="0 0 29 43" fill="none" xmlns="http://www.w3.org/2000/svg">
<g clip-path="url(#clip0_355_5146)">
<path d="M24.5327 8.71064C26.1556 11.6468 28.5164 17.8306 27.5467 21.1435C27.7311 21.2088 27.9231 21.2063 28.1076 21.2716C28.3793 21.367 28.8903 21.5328 28.9751 21.8643C29.2942 23.1051 26.1731 25.5615 25.2457 26.2924C24.5676 28.8192 23.1043 31.1977 20.9779 32.7525C20.2848 33.2598 17.0765 35.3194 16.6601 34.0133C16.5629 35.5153 16.6776 37.0148 16.6601 38.5193C16.6552 38.9463 16.6776 39.3808 16.6601 39.8053C16.6252 40.6417 16.7748 40.9079 16.1491 41.6338C15.7403 42.106 14.3293 42.9675 13.721 42.9976C12.8086 43.0453 10.5874 41.8221 10.4254 40.3729C10.3805 39.9685 10.4578 39.4109 10.4254 38.9839C10.7569 38.1928 11.3004 38.8081 10.732 37.6703C11.5995 36.9344 10.8915 37.1806 10.7819 36.7435C10.7395 36.5727 10.6248 33.6868 11.1907 33.6039C11.2032 33.4683 10.8666 33.3854 10.9364 33.0639C10.9414 33.0438 11.1558 32.7801 11.1159 32.7047C10.0639 32.2853 8.99195 31.8382 7.99978 31.263C7.43638 30.9365 6.94278 30.507 6.41678 30.1303C6.32953 30.07 6.03536 29.9821 5.95808 29.9243C5.76862 29.7837 5.77361 29.5074 5.14041 29.3064C4.35764 28.4123 2.77464 27.1238 2.45804 25.986C2.36082 25.8303 1.7351 25.6921 2.10156 25.2149C-1.72257 21.2464 0.453743 14.5327 2.51039 10.1574C2.8943 9.34107 3.27572 8.52477 3.83911 7.81397C2.02926 5.74183 2.45555 2.47664 4.68172 0.889259C7.28431 -0.966874 11.4549 0.20357 11.5297 3.71992C13.0753 3.56169 14.6459 3.44364 16.179 3.77016C16.4507 -0.396722 21.4291 -1.18288 23.8696 1.78844C25.333 3.56922 25.333 6.00556 23.9195 7.81146C23.9145 7.91946 24.443 8.5524 24.5327 8.71315V8.71064Z" fill="#FBFBFB"/>
<path d="M26.5245 21.7863C26.5245 21.7863 26.4722 21.8893 26.704 21.9396C26.9359 21.9923 27.3322 22.03 27.5466 22.0928C27.5018 22.2435 26.9733 22.5348 26.7539 22.6579C24.7097 23.8258 21.1224 25.9457 18.8589 26.1592C18.6769 26.1768 18.4999 26.1165 18.5024 26.2094C18.0636 26.0135 18.5796 25.3404 18.7566 25.0264C19.7812 23.6676 21.7107 22.6403 23.3311 22.246C24.0665 22.0677 25.1036 21.9546 23.715 22.0928C23.8372 21.6809 23.7848 21.8341 24.0715 21.5779C24.9042 21.5904 25.6371 21.7361 26.4473 21.8868C26.4797 21.8918 26.4547 21.7713 26.5245 21.7838V21.7863Z" fill="#526E49"/>
<path d="M27.8034 22.1983C27.6289 22.4821 27.0705 23.007 26.8062 23.2281C26.3725 23.5948 25.8839 23.7429 25.8091 24.1021C25.4202 24.3658 24.8668 24.7577 24.4804 24.9762C23.9569 25.2751 23.4009 25.5187 22.845 25.7473C22.5583 25.5539 21.5961 26.1793 20.928 26.0562C20.6288 26.2471 19.2328 26.2797 18.8589 26.1592C21.1224 25.9457 24.7097 23.8258 26.7539 22.6579C26.9708 22.5323 27.5018 22.2435 27.5466 22.0928C27.6314 22.1179 27.7187 22.1581 27.8009 22.1958L27.8034 22.1983Z" fill="#2C3F2D"/>
<path d="M27.599 22.8159C27.2849 23.2379 26.9982 23.4916 26.6293 23.8457C26.016 24.2677 25.4302 24.6972 24.7895 25.0815C24.7097 24.9835 24.6299 25.2573 24.4829 24.9785C24.8693 24.7574 25.4227 24.3681 25.8116 24.1044C26.4199 23.69 26.9932 23.2329 27.599 22.8184V22.8159Z" fill="#5C7D56"/>
<path d="M26.6268 23.8457C25.7592 24.672 24.3258 25.8299 23.204 26.2142C22.9746 26.1866 22.7104 26.2695 22.6929 26.164C23.4333 25.8802 24.1089 25.4909 24.787 25.084C25.4277 24.6997 26.0135 24.2702 26.6268 23.8482V23.8457Z" fill="#1D2315"/>
<path d="M27.599 22.816C26.9907 23.2305 26.4199 23.6901 25.8116 24.102C25.8839 23.7428 26.375 23.5946 26.8087 23.2279C27.0705 23.0069 27.6314 22.482 27.8059 22.1981C27.8632 22.2258 28.0278 22.1404 28.0103 22.276C27.8907 22.4694 27.7361 22.6352 27.6015 22.816H27.599Z" fill="#1D2315"/>
<path d="M24.074 21.5803C23.7873 21.8365 23.8397 21.6833 23.7175 22.0952C21.5861 22.3036 19.8535 23.1074 18.7616 25.0288C18.5821 25.3428 18.0661 26.0184 18.5074 26.2118C18.8738 26.3751 19.861 26.4278 20.2948 26.4178L20.2449 26.571C20.21 26.571 20.1776 26.571 20.1427 26.571C19.4846 26.5534 18.809 26.5886 18.2007 26.2872C18.4151 22.9617 20.9953 21.53 24.0765 21.5753L24.074 21.5803Z" fill="#6A8B67"/>
<path d="M18.7591 25.0312C19.8535 23.1098 21.5836 22.3061 23.715 22.0976C25.1036 21.962 24.0665 22.0725 23.3311 22.2508C21.7107 22.6451 19.7812 23.6724 18.7567 25.0312H18.7591Z" fill="#1D2315"/>
<path d="M22.8475 25.7521C22.7802 25.7798 22.5459 25.938 22.491 25.9581C21.7681 26.2243 21.0701 26.4027 20.2948 26.4202C19.861 26.4303 18.8713 26.3775 18.5074 26.2143C18.5074 26.1214 18.6819 26.1791 18.8638 26.1641C19.2378 26.2846 20.6338 26.252 20.933 26.0611C21.5986 26.1867 22.5608 25.5587 22.85 25.7521H22.8475Z" fill="#1D2315"/>
<path d="M24.787 25.0815C24.1089 25.4884 23.4333 25.8802 22.6929 26.1615L22.4885 26.2118V25.9556C22.5459 25.9355 22.7802 25.7772 22.845 25.7496C23.4009 25.5185 23.9568 25.2749 24.4804 24.9785C24.6274 25.2573 24.7072 24.9835 24.787 25.0815Z" fill="#6A8B67"/>
<path d="M22.4885 25.9581V26.2143L22.4387 26.2645C22.1744 26.3223 21.9401 26.473 21.6733 26.5207C21.4116 26.5684 21.0252 26.5584 20.7535 26.5709C20.5839 26.581 20.4119 26.5709 20.2424 26.5709L20.2923 26.4177C21.0701 26.3976 21.7681 26.2218 22.4885 25.9556V25.9581Z" fill="#8DAC8B"/>
<path d="M22.693 26.1641C22.7105 26.2721 22.9747 26.1867 23.2041 26.2143C23.3511 26.2319 23.6652 26.2871 23.8173 26.3173C23.568 26.9527 22.1994 28.4899 21.6211 29.1228C20.3796 30.4816 19.011 31.7375 17.6349 32.9582C17.6224 31.2979 18.0587 29.5925 18.9113 28.1709C19.0284 28.5878 19.0584 28.1734 19.2952 28.1709L19.6267 28.4271C19.2852 28.9445 18.9038 29.7457 18.6819 30.3309C19.6018 28.6984 20.8657 27.2893 22.4387 26.2645L22.4886 26.2143L22.693 26.1641Z" fill="#526E49"/>
<path d="M24.074 26.3701C23.7674 27.4174 23.0943 28.3895 22.3888 29.2284C22.2567 29.3841 21.3243 30.1702 21.5711 30.2833C20.8831 31.0292 20.0978 31.9058 19.3225 32.5488C19.3176 32.5513 19.2752 32.6493 19.2727 32.6518C18.819 33.0135 18.2232 33.2144 17.7146 33.4756C17.5999 33.5133 17.6398 33.2621 17.6373 32.9607C19.0134 31.74 20.382 30.4842 21.6235 29.1254C22.2018 28.4924 23.5729 26.9553 23.8197 26.3198C23.897 26.3349 24.0092 26.3525 24.074 26.3701Z" fill="#2C3F2D"/>
<path d="M20.2399 26.5759C20.4094 26.5759 20.5815 26.586 20.751 26.5759C21.0077 26.9351 20.1003 27.2038 20.4443 27.3998C20.22 27.6082 19.8037 28.1608 19.6267 28.4296L19.2951 28.1734C19.0583 28.1759 19.0284 28.5903 18.9112 28.1734C19.0483 27.9448 19.2129 27.7439 19.3699 27.5304C19.3724 27.5279 19.3001 27.4776 19.32 27.4525C19.3275 27.4425 19.3674 27.4877 19.5245 27.2993C19.679 27.2214 20.1477 26.8623 20.1377 26.6814C20.1377 26.6463 20.1377 26.6136 20.1377 26.5784C20.1726 26.5784 20.205 26.5784 20.2399 26.5784V26.5759Z" fill="#5C7D56"/>
<path d="M19.2702 32.6492C19.2702 32.6492 19.3176 32.5487 19.32 32.5462C20.7485 31.75 21.8404 30.5042 22.7952 29.2007C23.0345 28.8742 23.2863 28.5602 23.5106 28.2236C22.5583 30.0973 21.2047 31.7475 19.2702 32.6517V32.6492Z" fill="#1D2315"/>
<path d="M23.6652 27.9648C23.4034 27.8644 22.9722 28.7284 22.7977 28.9419C22.4212 29.4065 21.9775 29.8411 21.5711 30.2806C21.3243 30.1676 22.2567 29.3814 22.3888 29.2257C23.0943 28.3868 23.7699 27.4173 24.074 26.3674C24.1239 26.38 24.1987 26.3574 24.2535 26.3674C24.3582 26.4578 23.7649 27.7539 23.6652 27.9623V27.9648Z" fill="#1D2315"/>
<path d="M23.6652 27.965C23.6228 28.0554 23.5555 28.1383 23.5131 28.2212C23.2888 28.5578 23.037 28.8742 22.7977 29.1982V28.9421C22.9722 28.7286 23.4034 27.862 23.6652 27.965Z" fill="#526E49"/>
<path d="M22.4387 26.2671C20.8681 27.2919 19.6042 28.7009 18.6819 30.3335C18.9037 29.7458 19.2851 28.9445 19.6267 28.4296C19.8037 28.1609 20.22 27.6083 20.4443 27.3999C20.8058 27.0633 21.3019 26.8548 21.6709 26.5258C21.9376 26.4781 22.1744 26.3249 22.4362 26.2696L22.4387 26.2671Z" fill="#1D2315"/>
<path d="M22.7952 29.2006C21.8429 30.5042 20.7485 31.75 19.32 32.5462C20.0953 31.9032 20.8806 31.0266 21.5686 30.2806C21.975 29.8411 22.4187 29.4066 22.7952 28.9419V29.1981V29.2006Z" fill="#5C7D56"/>
<path d="M21.6709 26.5232C21.3044 26.8522 20.8058 27.0607 20.4443 27.3973C20.1003 27.2013 21.0077 26.9326 20.751 26.5734C21.0227 26.5584 21.4091 26.5684 21.6709 26.5232Z" fill="#5C7D56"/>
<path d="M26.5245 21.7863C26.4547 21.7738 26.4822 21.8943 26.4473 21.8893C25.6371 21.7386 24.9042 21.5929 24.0715 21.5804C20.9903 21.5326 18.4101 22.9668 18.1957 26.2923C18.804 26.5937 19.4796 26.5585 20.1377 26.5761C20.1377 26.6113 20.1377 26.6439 20.1377 26.6791C19.9109 26.8599 19.7089 27.0734 19.5245 27.297C19.3674 27.4878 19.3275 27.4401 19.32 27.4502C18.2107 27.209 18.3727 28.1534 17.2509 29.1481C16.7972 29.5524 16.2214 29.786 15.7427 30.1527V40.6038C15.5782 41.2242 14.0899 42.0832 13.5714 42.0707C13.0628 42.0581 11.4848 41.1941 11.3477 40.3979C11.0511 38.6724 11.8812 39.2249 11.961 39.1119C11.9984 39.0592 11.9734 37.8887 11.961 37.8259C11.9336 37.6928 11.3303 37.8686 12.5219 37.0548L11.7042 36.437V34.3271L12.4197 33.762C12.4446 33.6415 11.8014 33.1843 11.8064 33.0412C11.8089 32.9457 12.5468 32.2625 12.674 32.1144L11.8563 31.4463C12.0108 29.3791 11.6269 30.3461 10.2459 29.0526C9.66002 28.5051 9.11159 27.4979 9.01935 27.4577C3.68702 26.4555 0.471165 24.1825 0.875017 18.2599C1.04204 15.8161 3.10617 9.56448 4.96339 7.70583C1.1268 4.61897 5.57166 -1.01222 9.43317 1.24578C11.3627 2.37353 10.565 4.4733 10.5824 4.66921C10.5899 4.73953 10.6098 4.7546 10.6597 4.7973C12.6889 4.31757 15.0646 4.33264 17.0989 4.7973C16.6875 3.11448 17.2933 1.3362 19.0907 0.884102C23.0694 -0.113036 26.2379 5.10122 22.7453 7.70583C24.4056 9.12996 26.527 15.487 26.7813 17.4361C26.9708 18.8753 26.876 20.3848 26.527 21.7863H26.5245Z" fill="#0A0B0B"/>
<path d="M12.8559 6.54783C18.7392 6.08065 23.553 10.019 25.0438 15.6351L23.74 14.3215C18.9486 10.662 13.3445 14.9795 16.4083 19.3926C17.0066 20.2541 18.47 21.3165 18.6046 22.379C18.991 25.4206 13.9478 26.0736 13.903 22.5322L16.0992 21.0905C14.7256 20.1963 13.018 20.2792 11.602 21.0402L13.7982 22.4819C13.7309 26.4378 8.11691 25.1066 9.25118 21.9168C9.61266 20.9021 11.941 19.4127 12.1629 17.3857C12.664 12.8195 6.12508 11.0814 2.70979 15.6351C3.82662 10.9232 7.97482 6.93714 12.8534 6.54783H12.8559Z" fill="#DFE3E0"/>
<path d="M14.773 29.2535C14.409 29.3364 13.6387 29.3389 13.5988 29.4344C13.6154 33.304 13.6321 37.1737 13.6487 41.0434C13.6487 41.0434 13.6138 41.184 13.4692 41.1464C13.4268 41.1338 13.0005 40.6716 12.9831 40.6063C12.8485 40.0613 13.0853 30.9313 12.9831 29.3841C12.9282 29.241 11.2929 28.9094 10.4802 27.6863C12.7039 28.0731 14.9799 28.0856 17.1986 27.6611C16.6053 28.4674 15.7452 29.0325 14.7705 29.2561L14.773 29.2535Z" fill="#FBFBFB"/>
<path d="M13.6487 41.0408C13.6321 37.1711 13.6154 33.3015 13.5988 29.4318C13.6412 29.3364 14.4115 29.3364 14.773 29.251V40.1919C14.7505 40.2597 13.7808 40.978 13.6487 41.0408Z" fill="#81807E"/>
<path d="M19.5245 27.2971C19.7089 27.0735 19.9109 26.86 20.1377 26.6792C20.1477 26.86 19.679 27.2192 19.5245 27.2971Z" fill="#8DAC8B"/>
<path d="M7.38898 16.2783C10.6098 15.8714 10.5625 21.4599 7.03249 20.7064C4.48225 20.1614 4.97584 16.5847 7.38898 16.2783Z" fill="#FBFBFB"/>
<path d="M7.79782 17.052C9.4232 16.8184 9.77719 19.4607 8.15431 19.6264C6.43171 19.8023 6.34944 17.2604 7.79782 17.052Z" fill="#0A0B0B"/>
<path d="M7.95238 17.2051C8.47839 17.1423 8.59306 17.7752 8.20666 17.8732C7.60338 18.0289 7.46377 17.2628 7.95238 17.2051Z" fill="#FBFBFB"/>
<path d="M19.6017 16.2781C21.7382 15.9516 23.6004 18.7923 21.5437 20.2943C19.9158 21.4823 17.762 20.2968 17.9415 18.2598C18.0138 17.4485 18.7666 16.4062 19.6017 16.2781Z" fill="#FBFBFB"/>
<path d="M19.4497 17.0516C21.3443 16.7452 21.4714 19.8421 19.5519 19.6261C18.0836 19.4603 18.2256 17.25 19.4497 17.0516Z" fill="#0A0B0B"/>
<path d="M19.6017 17.2048C20.1676 17.1019 20.2449 17.9131 19.7039 17.9257C19.2353 17.9357 19.2004 17.2777 19.6017 17.2048Z" fill="#FBFBFB"/>
</g>
<defs>
<clipPath id="clip0_355_5146">
<rect width="29" height="43" fill="white"/>
</clipPath>
</defs>
</svg>
